<svg xmlns="http://www.w3.org/2000/svg" version="1.1" xmlns:xlink="http://www.w3.org/1999/xlink" xmlns:svgjs="http://svgjs.dev/svgjs" width="1000" height="1000" viewBox="0 0 1000 1000"><g transform="matrix(1,0,0,1,-0.49999999999994316,-0.49999999999994316)"><svg viewBox="0 0 280 280" data-background-color="#ffffff" preserveAspectRatio="xMidYMid meet" height="1000" width="1000" xmlns="http://www.w3.org/2000/svg" xmlns:xlink="http://www.w3.org/1999/xlink"><defs></defs><g id="tight-bounds" transform="matrix(1,0,0,1,0.13999999999998636,0.13999999999998636)"><svg viewBox="0 0 279.72 279.72" height="279.72" width="279.72"><g><svg viewBox="0 0 279.72 279.72" height="279.72" width="279.72"><g><svg viewBox="0 0 279.72 279.72" height="279.72" width="279.72"><g><svg viewBox="0 0 279.72 279.72" height="279.72" width="279.72"><g><svg viewBox="0 0 279.72 279.72" height="279.72" width="279.72"><g transform="matrix(1,0,0,1,57.531139034847,57.44670465270788)"><svg viewBox="0 0 164.65772193030602 164.82659069458427" height="164.82659069458427" width="164.65772193030602"><g><circle r="82" cx="82.41329534729213" cy="82.41329534729213" fill="#8bd8bc" data-fill-palette-color="accent"></circle><svg xmlns="http://www.w3.org/2000/svg" viewBox="94 -4.0312042236328125 500 520.0311889648438" style="enable-background:new 44 -44 600 600" xml:space="preserve" x="24.687825110096878" y="24.687825110096878" height="115.4509404743905" width="115.28207171011226" class="icon-o-0" data-fill-palette-color="quaternary" id="o-0"><path d="M194 516c-2.1 0-4.2-0.3-6.3-1-10.5-3.5-16.1-14.8-12.6-25.3l160-480C338.5-0.8 349.8-6.5 360.3-3s16.1 14.8 12.6 25.3l-160 480c-2.7 8.4-10.5 13.7-18.9 13.7zM354 516c-2.1 0-4.2-0.3-6.3-1-10.5-3.5-16.1-14.8-12.6-25.3l160-480C498.5-0.8 509.9-6.5 520.3-3c10.5 3.5 16.1 14.8 12.6 25.3l-160 480c-2.7 8.4-10.5 13.7-18.9 13.7z" fill="#ffffff" data-fill-palette-color="quaternary"></path><path d="M534 356H114c-11 0-20-9-20-20s9-20 20-20h420c11 0 20 9 20 20s-9 20-20 20zM574 196H174c-11 0-20-9-20-20s9-20 20-20h400c11 0 20 9 20 20s-9 20-20 20z" fill="#ffffff" data-fill-palette-color="quaternary"></path></svg></g></svg></g><path d="M31.396 110.513v0c-0.55-0.938-1.304-1.772-2.263-2.499-0.958-0.728-2.149-1.304-3.572-1.728v0l-23.214-6.917-2.347 7.877 1.486 0.443 1.882-6.315 21.614 6.44c1.168 0.348 2.156 0.815 2.963 1.402 0.807 0.586 1.432 1.25 1.876 1.99v0c0.494 0.756 0.798 1.569 0.911 2.439 0.112 0.877 0.057 1.78-0.164 2.71v0l1.515 0.451c0.3-1.1 0.391-2.193 0.271-3.279-0.114-1.078-0.434-2.083-0.958-3.014zM44.998 77.087l5.175-5.652-1.144-1.047-1.986 2.17c-0.853-1.895-1.63-3.612-2.331-5.153-0.706-1.545-1.494-3.255-2.365-5.129v0l7.564-8.263c1.791 0.634 3.569 1.264 5.332 1.89 1.754 0.626 3.526 1.256 5.317 1.89v0l-1.953 2.133 1.144 1.047 5.148-5.623-1.144-1.047-2.067 2.258c-4.741-1.681-9.441-3.338-14.1-4.971-4.668-1.633-9.364-3.299-14.087-5v0c2.114 4.55 4.186 9.083 6.214 13.6 2.023 4.512 4.092 9.043 6.207 13.592v0l-2.067 2.258zM36.745 50.099v0c-0.103-0.202-0.188-0.379-0.256-0.531-0.073-0.156-0.179-0.334-0.319-0.535v0l1.085 0.508 11.056 3.924-6.651 7.265c-0.804-1.742-1.611-3.515-2.423-5.317-0.811-1.803-1.642-3.574-2.492-5.314zM102.868 35.269l7.58-2.37-0.463-1.48-2.959 0.926-2.679-8.567c0.71-2.971 1.422-5.933 2.138-8.885 0.713-2.959 1.406-5.928 2.078-8.908v0l2.998-0.937-0.463-1.48-7.618 2.382 0.463 1.48 2.732-0.855-3.542 14.917-0.076 1.19-0.038 0.012-0.788-0.92c-1.894-1.706-3.794-3.406-5.698-5.102-1.905-1.696-3.833-3.401-5.786-5.117v0l2.808-0.878-0.463-1.479-7.618 2.381 0.463 1.48 2.922-0.913c2.293 2.026 4.57 4.059 6.833 6.101 2.261 2.035 4.542 4.068 6.843 6.098v0l2.679 8.566-2.808 0.878zM153.237 29.309l6.856 1.352c2.757 0.543 5.171 0.58 7.242 0.11 2.078-0.468 3.846-1.248 5.303-2.338v0c1.456-1.084 2.61-2.379 3.462-3.886 0.851-1.507 1.428-3.028 1.73-4.563v0c0.409-2.074 0.416-4.028 0.021-5.861-0.395-1.834-1.099-3.472-2.111-4.915v0c-1.019-1.41-2.298-2.597-3.836-3.562-1.532-0.964-3.234-1.631-5.107-2v0l-8.182-1.613-0.3 1.521 2.458 0.485-4.771 24.194-2.457-0.484zM157.592 28.547l4.77-24.195 4.135 0.815c1.664 0.328 3.175 0.923 4.531 1.785 1.351 0.854 2.483 1.911 3.397 3.172v0c0.908 1.287 1.533 2.74 1.875 4.362 0.342 1.621 0.332 3.351-0.031 5.191v0c-0.302 1.534-0.863 2.971-1.68 4.308-0.818 1.338-1.87 2.461-3.156 3.37v0c-1.291 0.928-2.813 1.576-4.568 1.946-1.761 0.369-3.721 0.34-5.879-0.085v0zM205.747 48.58l15.663 12.273 3.771-4.811-1.221-0.957-2.814 3.591-10.914-8.552 7.203-9.193 10.476 8.209 0.981-1.252-10.476-8.209 7.05-8.997 10.476 8.209-2.814 3.591 1.221 0.956 3.77-4.811-15.225-11.93-0.956 1.22 2.253 1.766-15.234 19.442-2.254-1.766zM251.659 113.404l25.327-10.773 1.307 3.073 1.427-0.607-3.124-7.344-1.427 0.607 1.179 2.771-20.79 8.843-1.124 0.608 0.655-1.1 14.244-28.806-1.677-3.942-1.427 0.607 1.261 2.963-22.73 9.668-1.26-2.964-1.427 0.607 3.124 7.345 1.427-0.607-1.23-2.89 20.58-8.754 1.021-0.52-0.552 1.012zM14.422 182.117l1.854 5.374 1.043-0.36-0.755-2.189 7.855-2.71 3.961 11.482-7.855 2.71-0.755-2.189-1.043 0.36 1.851 5.365 1.043-0.36-0.717-2.076 16.613-5.731 0.716 2.076 1.043-0.36-1.851-5.365-1.043 0.36 0.755 2.189-7.695 2.655-3.961-11.482 7.695-2.655 0.755 2.189 1.043-0.359-1.854-5.375-1.043 0.36 0.72 2.086-16.613 5.731-0.719-2.086zM21.811 202.412l6.541 12.564 3.861-2.011-0.509-0.978-2.883 1.5-4.553-8.746 7.371-3.836 4.369 8.393 0.996-0.519-4.369-8.393 7.221-3.759 4.369 8.394-2.883 1.5 0.509 0.979 3.862-2.01-6.357-12.211-0.978 0.509 0.941 1.808-15.588 8.114-0.941-1.808zM36.552 224.772v0c0.688 0.172 1.398 0.196 2.132 0.072 0.739-0.128 1.451-0.425 2.135-0.892v0c1.061-0.749 1.74-1.542 2.035-2.378 0.299-0.83 0.396-1.675 0.291-2.534v0c-0.133-0.888-0.365-1.773-0.695-2.655-0.33-0.882-0.56-1.724-0.69-2.526v0c-0.133-0.688-0.124-1.332 0.027-1.933 0.147-0.606 0.569-1.147 1.264-1.622v0c0.421-0.288 0.871-0.499 1.349-0.633 0.482-0.129 0.969-0.168 1.46-0.118v0c0.491 0.05 0.972 0.219 1.442 0.507 0.466 0.283 0.89 0.704 1.271 1.262v0c0.437 0.64 0.743 1.246 0.917 1.817 0.177 0.577 0.274 1.077 0.29 1.5v0l-2.052 1.402 0.64 0.935 2.519-1.721c0.033-0.456 0.018-0.907-0.046-1.353-0.069-0.442-0.17-0.847-0.3-1.216v0c-0.148-0.381-0.314-0.736-0.5-1.066-0.18-0.334-0.36-0.633-0.54-0.896v0c-0.531-0.777-1.112-1.351-1.742-1.722-0.627-0.366-1.267-0.579-1.918-0.64v0c-0.653-0.051-1.29 0.027-1.911 0.234-0.626 0.211-1.188 0.499-1.686 0.863v0c-0.747 0.551-1.239 1.135-1.474 1.753-0.241 0.622-0.337 1.269-0.287 1.942v0c0.055 0.644 0.192 1.309 0.412 1.994 0.214 0.689 0.421 1.362 0.621 2.019v0c0.152 0.586 0.278 1.146 0.378 1.68 0.105 0.53 0.109 1.057 0.009 1.583v0c-0.066 0.479-0.246 0.938-0.538 1.379-0.287 0.437-0.704 0.842-1.252 1.216v0c-0.542 0.37-1.114 0.589-1.718 0.657-0.6 0.073-1.18 0.035-1.738-0.113v0c-0.561-0.187-1.093-0.461-1.597-0.823-0.499-0.366-0.929-0.814-1.292-1.344v0c-0.594-0.87-0.965-1.712-1.112-2.527-0.143-0.809-0.162-1.559-0.056-2.249v0l2.092-1.429-0.639-0.936-2.495 1.705c-0.083 0.313-0.135 0.694-0.158 1.143-0.022 0.449 0.015 0.945 0.114 1.487v0c0.063 0.527 0.211 1.096 0.444 1.707 0.229 0.606 0.551 1.212 0.966 1.82v0c0.456 0.667 0.998 1.232 1.627 1.693 0.623 0.465 1.29 0.784 2.001 0.956zM38.035 228.712l3.814 4.216 0.818-0.74-1.553-1.717 6.161-5.576 8.15 9.006-6.162 5.576-1.554-1.718-0.818 0.741 3.808 4.208 0.818-0.74-1.473-1.629 13.03-11.791 1.474 1.629 0.818-0.741-3.808-4.208-0.818 0.74 1.553 1.718-6.036 5.462-8.149-9.007 6.036-5.462 1.554 1.718 0.818-0.741-3.815-4.215-0.818 0.74 1.48 1.636-13.03 11.791-1.48-1.636zM59.66 239.988v0c0.165-0.182 0.236-0.403 0.214-0.665-0.017-0.257-0.109-0.461-0.276-0.613v0c-0.182-0.165-0.404-0.245-0.667-0.242-0.258 0.008-0.469 0.103-0.633 0.285v0c-0.174 0.191-0.252 0.416-0.235 0.673 0.022 0.262 0.124 0.475 0.306 0.639v0c0.167 0.151 0.379 0.223 0.637 0.215 0.263-0.003 0.481-0.101 0.654-0.292zM54.919 245.216v0c0.165-0.182 0.236-0.403 0.214-0.665-0.017-0.257-0.109-0.461-0.276-0.613v0c-0.182-0.165-0.404-0.245-0.666-0.242-0.258 0.008-0.469 0.103-0.634 0.284v0c-0.178 0.196-0.258 0.423-0.241 0.681 0.022 0.262 0.124 0.475 0.306 0.639v0c0.167 0.151 0.379 0.223 0.636 0.215 0.263-0.003 0.483-0.103 0.661-0.299zM63.756 253.31l4.814 3.025 0.587-0.934-1.961-1.232 4.422-7.036 10.283 6.464-4.421 7.035-1.961-1.232-0.587 0.934 4.805 3.02 0.587-0.934-1.86-1.169 9.352-14.878 1.86 1.169 0.587-0.934-4.806-3.021-0.587 0.935 1.961 1.232-4.332 6.892-10.283-6.463 4.332-6.893 1.96 1.233 0.588-0.934-4.814-3.026-0.587 0.934 1.868 1.175-9.352 14.878-1.868-1.174zM82.234 264.492l12.969 5.693 1.75-3.987-1.01-0.443-1.307 2.976-9.028-3.963 3.339-7.609 8.665 3.803 0.451-1.028-8.664-3.803 3.271-7.454 8.665 3.803-1.306 2.976 1.01 0.443 1.75-3.986-12.606-5.533-0.443 1.01 1.866 0.819-7.063 16.092-1.866-0.819zM107.735 272.677v0c0.644-0.297 1.212-0.724 1.706-1.28 0.496-0.563 0.864-1.241 1.104-2.034v0c0.357-1.249 0.389-2.292 0.095-3.128-0.287-0.835-0.741-1.554-1.362-2.157v0c-0.661-0.608-1.396-1.153-2.206-1.633-0.81-0.48-1.517-0.992-2.121-1.535v0c-0.535-0.453-0.931-0.96-1.19-1.524-0.265-0.565-0.276-1.25-0.032-2.055v0c0.148-0.488 0.366-0.935 0.654-1.339 0.295-0.402 0.649-0.738 1.063-1.008v0c0.414-0.269 0.894-0.439 1.442-0.508 0.541-0.072 1.135-0.01 1.782 0.186v0c0.742 0.225 1.36 0.505 1.853 0.841 0.5 0.338 0.889 0.667 1.166 0.986v0l-0.72 2.379 1.085 0.328 0.884-2.921c-0.26-0.376-0.555-0.718-0.884-1.025-0.331-0.301-0.663-0.554-0.996-0.759v0c-0.354-0.204-0.706-0.376-1.059-0.517-0.35-0.147-0.677-0.267-0.981-0.36v0c-0.901-0.273-1.713-0.356-2.438-0.249-0.718 0.108-1.35 0.343-1.895 0.704v0c-0.541 0.369-0.988 0.829-1.342 1.38-0.355 0.557-0.613 1.133-0.773 1.729v0c-0.237 0.898-0.253 1.661-0.049 2.29 0.202 0.636 0.533 1.2 0.994 1.692v0c0.447 0.468 0.971 0.899 1.57 1.296 0.598 0.403 1.181 0.797 1.75 1.184v0c0.486 0.362 0.935 0.719 1.348 1.072 0.414 0.347 0.747 0.756 0.999 1.227v0c0.248 0.414 0.397 0.885 0.445 1.412 0.05 0.521-0.021 1.098-0.212 1.732v0c-0.19 0.628-0.499 1.157-0.928 1.589-0.422 0.433-0.897 0.767-1.424 1.002v0c-0.554 0.206-1.141 0.326-1.761 0.36-0.618 0.028-1.234-0.052-1.849-0.238v0c-1.008-0.305-1.825-0.729-2.45-1.271-0.619-0.54-1.103-1.113-1.454-1.717v0l0.734-2.426-1.084-0.328-0.875 2.892c0.132 0.296 0.33 0.626 0.593 0.99 0.264 0.364 0.604 0.726 1.021 1.088v0c0.379 0.371 0.851 0.721 1.416 1.051 0.558 0.328 1.19 0.599 1.894 0.812v0c0.774 0.234 1.55 0.334 2.329 0.3 0.777-0.028 1.496-0.198 2.158-0.51zM111.26 274.819l13.944 2.486 0.764-4.286-1.086-0.194-0.571 3.2-9.707-1.73 1.459-8.181 9.315 1.661 0.197-1.106-9.315-1.661 1.428-8.014 9.316 1.661-0.57 3.2 1.086 0.193 0.764-4.286-13.553-2.416-0.193 1.086 2.006 0.358-3.085 17.3-2.006-0.357zM127.881 277.469l4.976 0.202c1.993 0.081 3.694-0.155 5.102-0.707 1.409-0.559 2.566-1.301 3.473-2.226v0c0.9-0.925 1.569-1.962 2.007-3.112 0.431-1.15 0.67-2.281 0.715-3.393v0c0.061-1.503-0.148-2.878-0.628-4.124-0.473-1.246-1.146-2.321-2.017-3.225v0c-0.866-0.878-1.892-1.573-3.079-2.085-1.186-0.513-2.458-0.796-3.815-0.852v0l-5.929-0.242-0.045 1.103 1.788 0.073-0.714 17.528-1.787-0.072zM130.867 276.456l0.714-17.528 2.989 0.121c1.205 0.049 2.332 0.304 3.381 0.765 1.049 0.454 1.962 1.075 2.74 1.862v0c0.776 0.801 1.374 1.754 1.793 2.858 0.413 1.098 0.592 2.315 0.538 3.653v0c-0.045 1.112-0.281 2.184-0.708 3.214-0.426 1.024-1.043 1.927-1.851 2.71v0c-0.802 0.796-1.802 1.419-3.001 1.868-1.199 0.449-2.579 0.641-4.142 0.577v0zM162.706 276.187v0c0.916-0.15 1.717-0.482 2.405-0.997 0.688-0.515 1.232-1.128 1.633-1.838v0l1.897 2.177 0.792-0.764-2.293-2.626c0.096-0.358 0.158-0.717 0.186-1.078 0.029-0.354 0.032-0.71 0.007-1.069v0c-0.033-0.324-0.078-0.642-0.136-0.954-0.064-0.312-0.124-0.634-0.178-0.968v0l-0.383-2.345 2.844-0.465-0.182-1.118-3.983 0.651 0.633 3.875c0.058 0.353 0.076 0.693 0.056 1.018-0.026 0.333-0.079 0.668-0.159 1.003v0l-7.414-8.578c-0.325-0.383-0.586-0.794-0.786-1.231-0.193-0.439-0.299-0.884-0.319-1.338v0c-0.005-0.402 0.072-0.814 0.231-1.236 0.158-0.429 0.423-0.845 0.793-1.248v0c0.307-0.339 0.652-0.59 1.035-0.753 0.382-0.17 0.803-0.265 1.263-0.287v0c0.454-0.014 0.927 0.043 1.418 0.171 0.485 0.136 0.921 0.276 1.307 0.421v0l0.325-1.03c-0.432-0.178-0.931-0.335-1.497-0.471-0.566-0.136-1.151-0.184-1.756-0.146v0c-0.604 0.045-1.166 0.18-1.686 0.407-0.513 0.232-0.972 0.562-1.379 0.991v0c-0.457 0.491-0.783 1.004-0.977 1.539-0.2 0.543-0.282 1.087-0.247 1.632v0c0.027 0.533 0.154 1.063 0.381 1.589 0.234 0.526 0.55 1.021 0.948 1.487v0l2.515 2.943c-0.636 0.218-1.203 0.529-1.701 0.932-0.491 0.403-0.905 0.87-1.241 1.402v0c-0.326 0.55-0.554 1.148-0.684 1.793-0.124 0.638-0.132 1.29-0.022 1.958v0c0.125 0.765 0.381 1.448 0.768 2.05 0.388 0.608 0.87 1.113 1.446 1.516v0c0.566 0.424 1.21 0.726 1.931 0.903 0.714 0.179 1.45 0.206 2.209 0.082zM162.523 275.069v0c-0.608 0.099-1.192 0.081-1.752-0.056-0.56-0.137-1.064-0.37-1.514-0.699v0c-0.457-0.328-0.838-0.733-1.145-1.213-0.308-0.487-0.512-1.038-0.612-1.653v0c-0.094-0.575-0.09-1.127 0.011-1.653 0.107-0.535 0.306-1.027 0.595-1.477v0c0.312-0.434 0.696-0.812 1.154-1.136 0.464-0.324 0.981-0.55 1.551-0.676v0l5.088 5.866c-0.27 0.689-0.701 1.279-1.292 1.772-0.585 0.485-1.28 0.793-2.084 0.925zM192.721 265.609v0c0.318-0.633 0.497-1.322 0.536-2.065 0.036-0.749-0.099-1.509-0.406-2.278v0c-0.499-1.199-1.125-2.034-1.876-2.505-0.745-0.473-1.548-0.752-2.409-0.837v0c-0.896-0.064-1.81-0.031-2.743 0.098-0.933 0.129-1.805 0.17-2.616 0.123v0c-0.7-0.02-1.327-0.17-1.88-0.449-0.56-0.276-0.995-0.805-1.307-1.587v0c-0.189-0.474-0.297-0.959-0.323-1.454-0.02-0.498 0.047-0.982 0.202-1.451v0c0.156-0.469 0.425-0.901 0.81-1.297 0.378-0.393 0.881-0.715 1.509-0.965v0c0.72-0.287 1.378-0.453 1.974-0.498 0.602-0.047 1.111-0.033 1.526 0.044v0l0.921 2.308 1.052-0.419-1.13-2.835c-0.438-0.132-0.881-0.216-1.331-0.251-0.447-0.029-0.864-0.019-1.251 0.029v0c-0.404 0.061-0.787 0.146-1.15 0.255-0.366 0.103-0.696 0.213-0.992 0.331v0c-0.874 0.348-1.561 0.79-2.061 1.325-0.494 0.532-0.842 1.11-1.043 1.732v0c-0.193 0.626-0.255 1.265-0.188 1.916 0.069 0.657 0.227 1.268 0.474 1.833v0c0.374 0.849 0.838 1.457 1.39 1.821 0.555 0.371 1.165 0.605 1.832 0.704v0c0.641 0.087 1.32 0.098 2.035 0.033 0.719-0.058 1.421-0.114 2.107-0.165v0c0.605-0.02 1.179-0.021 1.722-0.002 0.54 0.013 1.056 0.125 1.546 0.336v0c0.453 0.169 0.862 0.445 1.228 0.826 0.364 0.376 0.668 0.871 0.914 1.487v0c0.243 0.609 0.332 1.216 0.266 1.82-0.06 0.602-0.223 1.159-0.489 1.672v0c-0.304 0.507-0.688 0.966-1.152 1.379-0.466 0.407-0.997 0.729-1.594 0.967v0c-0.979 0.39-1.881 0.568-2.708 0.534-0.821-0.037-1.556-0.182-2.207-0.436v0l-0.939-2.354-1.052 0.42 1.119 2.806c0.288 0.149 0.648 0.284 1.081 0.404 0.433 0.12 0.925 0.191 1.477 0.214v0c0.528 0.053 1.115 0.033 1.762-0.061 0.641-0.092 1.303-0.274 1.987-0.546v0c0.751-0.299 1.42-0.705 2.008-1.218 0.59-0.506 1.046-1.088 1.369-1.744zM196.89 265.022l4.946-2.803-0.544-0.96-2.015 1.142-4.096-7.23 10.568-5.987 4.096 7.229-2.015 1.142 0.544 0.96 4.938-2.798-0.544-0.96-1.911 1.083-8.663-15.29 1.912-1.082-0.544-0.96-4.938 2.797 0.544 0.96 2.015-1.141 4.012 7.082-10.567 5.988-4.013-7.083 2.015-1.142-0.544-0.959-4.947 2.802 0.544 0.96 1.92-1.088 8.663 15.29-1.92 1.088zM215.594 253.947l4.207-3.475-0.702-0.851-1.61 1.329c-0.415-1.419-0.794-2.704-1.136-3.857-0.346-1.158-0.735-2.44-1.165-3.846v0l6.146-5.076c1.197 0.627 2.388 1.247 3.571 1.858 1.179 0.616 2.365 1.235 3.558 1.857v0l-1.586 1.31 0.703 0.851 4.184-3.456-0.703-0.851-1.678 1.386c-3.175-1.649-6.324-3.281-9.446-4.896-3.123-1.606-6.266-3.242-9.43-4.909v0c1.044 3.418 2.054 6.816 3.031 10.194 0.986 3.379 1.997 6.777 3.032 10.195v0l-1.679 1.386zM212.451 234.111v0c-0.052-0.146-0.096-0.277-0.132-0.393-0.036-0.116-0.093-0.254-0.173-0.412v0l0.718 0.464 7.406 3.861-5.403 4.463c-0.402-1.309-0.8-2.639-1.194-3.99-0.389-1.346-0.797-2.676-1.222-3.993zM233.629 238.534l9.327-10.54-3.26-2.885-0.731 0.826 2.434 2.154-6.535 7.384-13.16-11.646 1.555-1.756-0.827-0.731-3.616 4.086 0.826 0.731 1.298-1.466 13.16 11.646-1.297 1.466zM251.563 209.701v0c-0.267-1.251-0.771-2.434-1.512-3.549-0.741-1.115-1.696-2.048-2.866-2.801v0c-1.17-0.753-2.422-1.239-3.755-1.457-1.327-0.215-2.623-0.19-3.889 0.075v0c-1.256 0.287-2.446 0.802-3.57 1.544-1.118 0.746-2.055 1.707-2.811 2.883v0c-0.753 1.17-1.235 2.416-1.447 3.738-0.206 1.325-0.174 2.61 0.096 3.856v0c0.276 1.273 0.79 2.466 1.54 3.578 0.755 1.116 1.718 2.051 2.888 2.803v0c1.17 0.753 2.414 1.238 3.733 1.455 1.318 0.217 2.605 0.182 3.861-0.104v0c1.268-0.256 2.453-0.758 3.556-1.506 1.109-0.744 2.04-1.702 2.793-2.872v0c0.756-1.176 1.245-2.426 1.466-3.749 0.226-1.32 0.199-2.618-0.083-3.894zM243.611 220.611v0c-1.106 0.25-2.246 0.277-3.42 0.081-1.169-0.192-2.268-0.62-3.3-1.283v0c-1.048-0.674-1.907-1.506-2.577-2.497-0.671-0.991-1.13-2.047-1.378-3.167v0c-0.239-1.123-0.267-2.267-0.084-3.434 0.181-1.176 0.601-2.276 1.261-3.302v0c0.674-1.048 1.506-1.895 2.497-2.541 0.989-0.656 2.048-1.113 3.176-1.373v0c1.134-0.232 2.285-0.252 3.454-0.06 1.163 0.189 2.268 0.62 3.316 1.294v0c1.048 0.674 1.899 1.501 2.552 2.481 0.654 0.98 1.105 2.03 1.353 3.151v0c0.249 1.145 0.271 2.31 0.069 3.495-0.199 1.18-0.634 2.291-1.305 3.333v0c-0.652 1.014-1.47 1.851-2.454 2.511-0.98 0.654-2.033 1.091-3.16 1.311zM256.684 205.939l2.076-5.293-1.027-0.403-0.817 2.082-14.147-5.55c-0.16-0.063-0.334-0.128-0.522-0.194-0.184-0.058-0.358-0.112-0.524-0.163v0c0.202-0.042 0.351-0.079 0.45-0.111 0.104-0.03 0.257-0.066 0.459-0.109v0l13.724-3.958-7.176-11.891c-0.136-0.217-0.254-0.406-0.354-0.566-0.101-0.161-0.219-0.349-0.355-0.566v0c0.202 0.101 0.366 0.183 0.491 0.246 0.133 0.059 0.305 0.13 0.515 0.213v0l14.148 5.55-0.784 1.998 1.027 0.403 2.072-5.283-1.027-0.403-0.867 2.211-16.36-6.417 0.839-2.138-1.027-0.403-1.086 2.767c1.359 2.27 2.723 4.535 4.093 6.795 1.372 2.254 2.733 4.518 4.084 6.791v0c-2.174 0.642-4.601 1.348-7.28 2.119-2.68 0.771-5.331 1.532-7.953 2.283v0l-1.086 2.766 1.027 0.403 0.839-2.137 16.359 6.418-0.838 2.137zM11.684 146.926c0-1.84 1.492-3.332 3.332-3.332 1.84 0 3.332 1.492 3.332 3.332 0 1.84-1.492 3.332-3.332 3.331-1.84 0-3.332-1.492-3.332-3.331zM261.916 146.926c0-1.84 1.492-3.332 3.332-3.332 1.84 0 3.332 1.492 3.331 3.332 0 1.84-1.492 3.332-3.331 3.331-1.84 0-3.332-1.492-3.332-3.331z" fill="#233565" data-fill-palette-color="primary"></path></svg></g></svg></g></svg></g></svg></g></svg><rect width="279.72" height="279.72" fill="none" stroke="none" visibility="hidden"></rect></g></svg></g></svg>