<svg xmlns="http://www.w3.org/2000/svg" version="1.1" xmlns:xlink="http://www.w3.org/1999/xlink" xmlns:svgjs="http://svgjs.dev/svgjs" width="1000" height="1000" viewBox="0 0 1000 1000"><rect width="1000" height="1000" fill="#ffffff"></rect><g transform="matrix(0.7,0,0,0.7,149.57575760249665,383.736764192125)"><svg viewBox="0 0 396 132" data-background-color="#ffffff" preserveAspectRatio="xMidYMid meet" height="333" width="1000" xmlns="http://www.w3.org/2000/svg" xmlns:xlink="http://www.w3.org/1999/xlink"><defs></defs><g id="tight-bounds" transform="matrix(1,0,0,1,0.24000001512672497,-0.16238898910555122)"><svg viewBox="0 0 395.52 132.32477797821107" height="132.32477797821107" width="395.52"><g><svg viewBox="0 0 664.4542339529291 222.2991479179401" height="132.32477797821107" width="395.52"><g transform="matrix(1,0,0,1,0,43.125731887806964)"><svg viewBox="0 0 395.52000000000004 136.04768414232618" height="136.04768414232618" width="395.52000000000004"><g><svg viewBox="0 0 395.52000000000004 136.04768414232618" height="136.04768414232618" width="395.52000000000004"><g><svg viewBox="0 0 395.52000000000004 98.77134065934067" height="98.77134065934067" width="395.52000000000004"><g transform="matrix(1,0,0,1,0,0)"><svg width="395.52000000000004" viewBox="-1.399999976158142 -37.95000076293945 185.5399932861328 45.45000076293945" height="98.77134065934067" data-palette-color="#233565"><g class="undefined-text-0" data-fill-palette-color="primary" id="text-0"><path d="M-1.4 7.5L-1.4 7.5-1.4 2.35Q2.1 2.15 4.33-0.05 6.55-2.25 6.55-6.9L6.55-6.9 6.55-36.25 12.05-36.25 12.05-6.75Q12.05-3.4 11.05-0.8 10.05 1.8 8.25 3.63 6.45 5.45 3.98 6.43 1.5 7.4-1.4 7.5ZM48.65 0L43.25 0Q43-0.55 42.55-1.6 42.1-2.65 41.52-4.03 40.95-5.4 40.27-7.03 39.6-8.65 38.9-10.4L38.9-10.4 26.1-10.4 21.8 0 16.4 0 32.55-37.95Q32.85-37.25 33.62-35.4 34.4-33.55 35.47-30.98 36.55-28.4 37.87-25.28 39.2-22.15 40.57-18.95 41.95-15.75 43.27-12.65 44.6-9.55 45.7-6.95 46.8-4.35 47.57-2.53 48.35-0.7 48.65 0L48.65 0ZM32-24.7L28-15 37.05-15Q36.35-16.65 35.72-18.18 35.1-19.7 34.57-20.98 34.05-22.25 33.65-23.2 33.25-24.15 33.05-24.7L33.05-24.7Q33-24.8 32.82-25.4 32.65-26 32.55-26.5L32.55-26.5Q32.45-26 32.25-25.4 32.05-24.8 32-24.7L32-24.7ZM81.2-36.25L67.85-11.95 67.85 0 62.35 0 62.35-11.95Q62-12.5 60.97-14.35 59.95-16.2 58.57-18.73 57.2-21.25 55.62-24.1 54.05-26.95 52.67-29.48 51.3-32 50.27-33.85 49.25-35.7 48.9-36.25L48.9-36.25 55.1-36.25Q55.55-35.5 56.7-33.38 57.85-31.25 59.25-28.58 60.65-25.9 62.1-23.18 63.55-20.45 64.55-18.5L64.55-18.5 65.1-16.85Q65.3-17.25 65.45-17.68 65.6-18.1 65.75-18.5L65.75-18.5Q66.8-20.45 68.2-23.18 69.6-25.9 70.97-28.58 72.35-31.25 73.47-33.38 74.6-35.5 75.05-36.25L75.05-36.25 81.2-36.25ZM85.94 0L85.94-36.25 95.04-36.25Q100.54-36.25 104.34-34.6 108.14-32.95 110.52-30.28 112.89-27.6 113.97-24.28 115.04-20.95 115.04-17.65L115.04-17.65Q115.04-13.6 113.59-10.33 112.14-7.05 109.64-4.75 107.14-2.45 103.84-1.23 100.54 0 96.84 0L96.84 0 85.94 0ZM91.39-5.2L96.04-5.2Q98.94-5.2 101.42-6.05 103.89-6.9 105.72-8.53 107.54-10.15 108.57-12.53 109.59-14.9 109.59-18L109.59-18Q109.59-21.3 108.44-23.75 107.29-26.2 105.44-27.83 103.59-29.45 101.27-30.23 98.94-31 96.54-31L96.54-31 91.39-31 91.39-5.2ZM145.99 0L121.49 0 121.49-36.25 145.29-36.25 145.29-31.3 126.99-31.3 126.99-20.7 143.29-20.7 143.29-15.65 126.99-15.65 126.99-5.05 145.99-5.05 145.99 0ZM178.69-36.25L184.14-36.25 184.14 1.65Q183.44 0.75 181.44-1.25 179.44-3.25 176.84-5.85 174.24-8.45 171.31-11.3 168.39-14.15 165.79-16.73 163.19-19.3 161.24-21.33 159.29-23.35 158.64-24.2L158.64-24.2 157.69-25.5 157.84-23.9 157.84 0 152.34 0 152.34-37.95Q152.89-37.25 154.16-35.95 155.44-34.65 157.16-32.93 158.89-31.2 160.96-29.2 163.04-27.2 165.16-25.15 167.29-23.1 169.36-21.13 171.44-19.15 173.16-17.45 174.89-15.75 176.14-14.45 177.39-13.15 177.89-12.5L177.89-12.5 178.84-11.1 178.69-12.8 178.69-36.25Z" fill="#000000" data-fill-palette-color="primary"></path></g></svg></g></svg></g><g transform="matrix(1,0,0,1,207.64800000000002,122.08888367683517)"><svg viewBox="0 0 187.872 13.958800465491002" height="13.958800465491002" width="187.872"><g transform="matrix(1,0,0,1,0,0)"><svg width="187.872" viewBox="2.5 -40.95000076293945 558.5 41.5" height="13.958800465491002" data-palette-color="#233565"><path d="M6.55-2.95L6.55-34.05 2.6-34.65 2.6-37.15 16.2-37.15 16.2-34.65 11.9-34.05 11.9-20.6 29.5-20.6 29.5-34.05 25.45-34.65 25.45-37.15 38.85-37.15 38.85-34.65 34.9-34.05 34.9-2.95 38.85-2.45 38.85 0 25.4 0 25.4-2.45 29.5-2.95 29.5-17.5 11.9-17.5 11.9-2.95 16.25-2.45 16.25 0 2.5 0 2.5-2.45 6.55-2.95ZM47.85-2.95L47.85-34.05 43.75-34.65 43.75-37.15 69.2-37.15 69.9-29.4 67.05-29.4 65.6-34.25 53.2-34.55 53.2-20.45 61.55-20.6 62.25-24.75 65-24.75 65-13.25 62.25-13.25 61.55-17.55 53.2-17.7 53.2-2.8 67.3-3.3 69.95-9.6 72.9-8.7 71.45 0 43.7 0 43.7-2.45 47.85-2.95ZM88.45 0.55Q85.85 0.55 83.8 0.1 81.75-0.35 79.3-1.1L79.3-1.1Q77.8-1.65 77.05-1.7L77.05-1.7 77.45-10.75 80.65-10.75 81.5-4.25Q82.35-3.45 84.27-2.83 86.2-2.2 88.5-2.2L88.5-2.2Q92.3-2.2 94.27-3.9 96.25-5.6 96.25-8.6L96.25-8.6Q96.25-10.55 95.17-11.95 94.1-13.35 92.32-14.35 90.55-15.35 87.45-16.7L87.45-16.7Q84.65-17.95 82.57-19.25 80.5-20.55 78.97-22.73 77.45-24.9 77.45-27.95L77.45-27.95Q77.45-30.7 78.92-32.88 80.4-35.05 83.17-36.3 85.95-37.55 89.65-37.55L89.65-37.55Q91.95-37.55 93.72-37.2 95.5-36.85 97.75-36.25L97.75-36.25Q98.75-35.9 99.45-35.8L99.45-35.8 99.15-27.4 96.1-27.4 95.1-33.55Q94.6-34.05 93.02-34.5 91.45-34.95 89.6-34.95L89.6-34.95Q86.15-34.95 84.37-33.5 82.6-32.05 82.6-29.3L82.6-29.3Q82.6-27.3 83.67-25.95 84.75-24.6 86.35-23.65 87.95-22.7 91.45-21.05L91.45-21.05Q94.7-19.5 96.75-18.25 98.8-17 100.27-14.98 101.75-12.95 101.75-10.15L101.75-10.15Q101.75-7.5 100.27-5.05 98.8-2.6 95.77-1.03 92.75 0.55 88.45 0.55L88.45 0.55ZM110.19-2.95L110.19-34.05 106.24-34.65 106.24-37.15 119.84-37.15 119.84-34.65 115.54-34.05 115.54-20.6 133.14-20.6 133.14-34.05 129.09-34.65 129.09-37.15 142.49-37.15 142.49-34.65 138.54-34.05 138.54-2.95 142.49-2.45 142.49 0 129.04 0 129.04-2.45 133.14-2.95 133.14-17.5 115.54-17.5 115.54-2.95 119.89-2.45 119.89 0 106.14 0 106.14-2.45 110.19-2.95ZM153.29-20.15Q151.99-20.15 151.07-21.03 150.14-21.9 150.14-23.3L150.14-23.3Q150.14-24.9 151.24-25.93 152.34-26.95 153.89-26.95L153.89-26.95Q155.44-26.95 156.24-26.05 157.04-25.15 157.04-23.8L157.04-23.8Q157.04-22.15 155.97-21.15 154.89-20.15 153.29-20.15L153.29-20.15ZM153.29 0.5Q151.99 0.5 151.07-0.4 150.14-1.3 150.14-2.7L150.14-2.7Q150.14-4.25 151.24-5.3 152.34-6.35 153.89-6.35L153.89-6.35Q155.39-6.35 156.22-5.43 157.04-4.5 157.04-3.15L157.04-3.15Q157.04-1.5 155.97-0.5 154.89 0.5 153.29 0.5L153.29 0.5ZM179.03-2.85L179.03-37.3 174.84-37.85 174.84-40 182.99-40.95 183.09-40.95 184.19-40.2 184.19-28.6 183.99-24.35Q185.59-25.8 188.39-27.1 191.19-28.4 194.04-28.4L194.04-28.4Q197.19-28.4 198.94-27.2 200.69-26 201.39-23.53 202.09-21.05 202.09-16.85L202.09-16.85 202.09-2.9 205.59-2.45 205.59 0 193.64 0 193.64-2.45 196.89-2.9 196.89-16.9Q196.89-19.85 196.49-21.53 196.09-23.2 194.99-24.03 193.89-24.85 191.69-24.85L191.69-24.85Q189.89-24.85 187.84-23.95 185.78-23.05 184.24-21.85L184.24-21.85 184.24-2.9 187.69-2.45 187.69 0 176.03 0 176.03-2.45 179.03-2.85ZM221.58 0.55Q215.53 0.55 212.36-3.4 209.18-7.35 209.18-13.95L209.18-13.95Q209.18-18.3 210.83-21.6 212.48-24.9 215.46-26.7 218.43-28.5 222.23-28.5L222.23-28.5Q226.88-28.5 229.46-25.93 232.03-23.35 232.18-18.55L232.18-18.55Q232.18-15.5 231.83-13.9L231.83-13.9 214.63-13.9Q214.73-8.95 216.93-5.93 219.13-2.9 223.18-2.9L223.18-2.9Q225.18-2.9 227.36-3.63 229.53-4.35 230.73-5.35L230.73-5.35 231.68-3.15Q230.23-1.65 227.38-0.55 224.53 0.55 221.58 0.55L221.58 0.55ZM214.68-16.55L226.68-16.55Q226.83-17.6 226.83-18.7L226.83-18.7Q226.78-21.95 225.46-23.83 224.13-25.7 221.28-25.7L221.28-25.7Q218.38-25.7 216.66-23.6 214.93-21.5 214.68-16.55L214.68-16.55ZM240.23-7.9L241.13-4Q241.63-3.25 243.26-2.65 244.88-2.05 246.68-2.05L246.68-2.05Q249.53-2.05 250.88-3.15 252.23-4.25 252.23-6.2L252.23-6.2Q252.23-7.55 251.38-8.55 250.53-9.55 249.01-10.33 247.48-11.1 244.63-12.2L244.63-12.2Q240.78-13.65 239.01-15.68 237.23-17.7 237.23-21L237.23-21Q237.23-23.2 238.56-24.85 239.88-26.5 242.21-27.43 244.53-28.35 247.38-28.35L247.38-28.35Q249.68-28.35 251.41-28 253.13-27.65 254.18-27.3 255.23-26.95 255.58-26.85L255.58-26.85 255.58-20.65 252.53-20.65 251.53-24.35Q251.23-24.95 249.93-25.38 248.63-25.8 247.03-25.8L247.03-25.8Q244.78-25.8 243.41-24.8 242.03-23.8 242.03-22.1L242.03-22.1Q242.03-20.6 242.76-19.63 243.48-18.65 244.58-18.05 245.68-17.45 247.58-16.65L247.58-16.65 248.58-16.25Q251.38-15.15 253.13-14.15 254.88-13.15 256.06-11.53 257.23-9.9 257.23-7.55L257.23-7.55Q257.23-3.85 254.36-1.65 251.48 0.55 246.48 0.55L246.48 0.55Q244.03 0.55 241.36-0.13 238.68-0.8 236.98-1.5L236.98-1.5 236.98-7.9 240.23-7.9ZM274.03 0.55Q267.98 0.55 264.8-3.4 261.63-7.35 261.63-13.95L261.63-13.95Q261.63-18.3 263.28-21.6 264.93-24.9 267.9-26.7 270.88-28.5 274.68-28.5L274.68-28.5Q279.33-28.5 281.9-25.93 284.48-23.35 284.63-18.55L284.63-18.55Q284.63-15.5 284.28-13.9L284.28-13.9 267.08-13.9Q267.18-8.95 269.38-5.93 271.58-2.9 275.63-2.9L275.63-2.9Q277.63-2.9 279.8-3.63 281.98-4.35 283.18-5.35L283.18-5.35 284.13-3.15Q282.68-1.65 279.83-0.55 276.98 0.55 274.03 0.55L274.03 0.55ZM267.13-16.55L279.13-16.55Q279.28-17.6 279.28-18.7L279.28-18.7Q279.23-21.95 277.9-23.83 276.58-25.7 273.73-25.7L273.73-25.7Q270.83-25.7 269.1-23.6 267.38-21.5 267.13-16.55L267.13-16.55ZM299.73 0.55Q296.73 0.55 294.23-0.95 291.73-2.45 290.25-5.55 288.78-8.65 288.78-13.2L288.78-13.2Q288.78-17.45 290.53-20.95 292.28-24.45 295.55-26.48 298.82-28.5 303.28-28.5L303.28-28.5Q305.82-28.5 307.93-27.95L307.93-27.95 307.93-37.3 302.82-37.9 302.82-40.05 311.82-40.95 311.98-40.95 313.07-40.15 313.07-2.55 315.98-2.55 315.98-0.25Q314.38 0.1 313.2 0.3 312.03 0.5 310.73 0.5L310.73 0.5Q309.43 0.5 308.88 0.05 308.32-0.4 308.32-1.85L308.32-1.85 308.32-3.45Q306.93-1.75 304.65-0.6 302.38 0.55 299.73 0.55L299.73 0.55ZM301.73-3Q303.68-3 305.38-3.88 307.07-4.75 307.93-5.9L307.93-5.9 307.93-24.2Q307.53-24.8 306.05-25.28 304.57-25.75 302.93-25.75L302.93-25.75Q299.03-25.75 296.7-22.78 294.38-19.8 294.38-13.6L294.38-13.6Q294.38-8.2 296.43-5.6 298.48-3 301.73-3L301.73-3ZM366.52-20.35L366.52-17.6 362.47-17.05Q362.52-13.65 361.47-10.6 360.42-7.55 358.57-5.6L358.57-5.6Q360.27-4.05 361.72-3.3 363.17-2.55 365.07-2.45L365.07-2.45 365.07-0.25Q364.62 0 363.45 0.15 362.27 0.3 361.47 0.3L361.47 0.3Q359.72 0.3 358.3-0.35 356.87-1 355.02-2.55L355.02-2.55Q353.12-1 350.67-0.28 348.22 0.45 345.82 0.45L345.82 0.45Q339.72 0.45 336.15-2.15 332.57-4.75 332.57-9.35L332.57-9.35Q332.57-12.55 334.65-14.85 336.72-17.15 340.07-18.55L340.07-18.55Q335.72-24.05 335.72-28.85L335.72-28.85Q335.72-31.2 337.02-33.2 338.32-35.2 340.6-36.4 342.87-37.6 345.67-37.6L345.67-37.6Q348.57-37.6 350.6-36.6 352.62-35.6 353.62-34 354.62-32.4 354.62-30.7L354.62-30.7Q354.62-27.85 353.57-25.85 352.52-23.85 350.82-22.45 349.12-21.05 346.02-19.05L346.02-19.05Q347.77-16.95 350.6-13.8 353.42-10.65 355.22-8.8L355.22-8.8 356.47-7.6Q357.72-9.2 358.27-11.33 358.82-13.45 358.82-15.65L358.82-15.65Q358.82-16.6 358.77-17.05L358.77-17.05 354.72-17.6 354.72-20.35 366.52-20.35ZM340.67-29.5Q340.67-26.95 341.75-24.93 342.82-22.9 344.52-20.95L344.52-20.95Q347.62-23.45 348.87-25.45 350.12-27.45 350.12-30.45L350.12-30.45Q350.12-32.3 349.12-33.83 348.12-35.35 345.62-35.35L345.62-35.35Q343.52-35.35 342.1-33.7 340.67-32.05 340.67-29.5L340.67-29.5ZM346.22-2.35Q347.97-2.35 349.72-2.88 351.47-3.4 352.82-4.4L352.82-4.4Q350.82-6.2 348.45-8.83 346.07-11.45 342.52-15.6L342.52-15.6 341.67-16.6Q337.42-13.3 337.42-9.7L337.42-9.7Q337.42-6.5 339.72-4.42 342.02-2.35 346.22-2.35L346.22-2.35ZM385.22-7.9L386.12-4Q386.62-3.25 388.24-2.65 389.87-2.05 391.67-2.05L391.67-2.05Q394.52-2.05 395.87-3.15 397.22-4.25 397.22-6.2L397.22-6.2Q397.22-7.55 396.37-8.55 395.52-9.55 393.99-10.33 392.47-11.1 389.62-12.2L389.62-12.2Q385.77-13.65 383.99-15.68 382.22-17.7 382.22-21L382.22-21Q382.22-23.2 383.54-24.85 384.87-26.5 387.19-27.43 389.52-28.35 392.37-28.35L392.37-28.35Q394.67-28.35 396.39-28 398.12-27.65 399.17-27.3 400.22-26.95 400.57-26.85L400.57-26.85 400.57-20.65 397.52-20.65 396.52-24.35Q396.22-24.95 394.92-25.38 393.62-25.8 392.02-25.8L392.02-25.8Q389.77-25.8 388.39-24.8 387.02-23.8 387.02-22.1L387.02-22.1Q387.02-20.6 387.74-19.63 388.47-18.65 389.57-18.05 390.67-17.45 392.57-16.65L392.57-16.65 393.57-16.25Q396.37-15.15 398.12-14.15 399.87-13.15 401.04-11.53 402.22-9.9 402.22-7.55L402.22-7.55Q402.22-3.85 399.34-1.65 396.47 0.55 391.47 0.55L391.47 0.55Q389.02 0.55 386.34-0.13 383.67-0.8 381.97-1.5L381.97-1.5 381.97-7.9 385.22-7.9ZM409.41-2.85L409.41-37.3 405.21-37.85 405.21-40 413.36-40.95 413.46-40.95 414.56-40.2 414.56-28.6 414.36-24.35Q415.96-25.8 418.76-27.1 421.56-28.4 424.41-28.4L424.41-28.4Q427.56-28.4 429.31-27.2 431.06-26 431.76-23.53 432.46-21.05 432.46-16.85L432.46-16.85 432.46-2.9 435.96-2.45 435.96 0 424.01 0 424.01-2.45 427.26-2.9 427.26-16.9Q427.26-19.85 426.86-21.53 426.46-23.2 425.36-24.03 424.26-24.85 422.06-24.85L422.06-24.85Q420.26-24.85 418.21-23.95 416.16-23.05 414.61-21.85L414.61-21.85 414.61-2.9 418.06-2.45 418.06 0 406.41 0 406.41-2.45 409.41-2.85ZM439.66-7.5Q439.66-12.2 444.36-14.43 449.06-16.65 456.26-16.8L456.26-16.8 456.26-18.2Q456.26-20.55 455.76-21.9 455.26-23.25 454.04-23.88 452.81-24.5 450.56-24.5L450.56-24.5Q448.01-24.5 445.99-23.78 443.96-23.05 441.96-22L441.96-22 440.71-24.6Q441.36-25.15 443.11-26.05 444.86-26.95 447.16-27.65 449.46-28.35 451.76-28.35L451.76-28.35Q455.31-28.35 457.39-27.38 459.46-26.4 460.36-24.25 461.26-22.1 461.26-18.5L461.26-18.5 461.26-2.45 464.21-2.45 464.21-0.25Q463.21 0 461.69 0.25 460.16 0.5 459.01 0.5L459.01 0.5Q457.61 0.5 457.11 0.08 456.61-0.35 456.61-1.8L456.61-1.8 456.61-3.45Q455.11-1.95 452.94-0.7 450.76 0.55 448.01 0.55L448.01 0.55Q444.41 0.55 442.04-1.53 439.66-3.6 439.66-7.5L439.66-7.5ZM450.16-2.85Q451.46-2.85 453.16-3.65 454.86-4.45 456.26-5.55L456.26-5.55 456.26-14.15Q450.81-14.15 448.04-12.48 445.26-10.8 445.26-8.1L445.26-8.1Q445.26-5.4 446.59-4.13 447.91-2.85 450.16-2.85L450.16-2.85ZM471.36-2.9L471.36-37.3 467.31-37.85 467.31-40 475.36-40.95 475.46-40.95 476.56-40.2 476.56-2.85 480.81-2.45 480.81 0 467.31 0 467.31-2.45 471.36-2.9ZM484.36-13.95Q484.36-18.45 486.21-21.75 488.06-25.05 491.08-26.78 494.11-28.5 497.56-28.5L497.56-28.5Q503.86-28.5 507.03-24.5 510.21-20.5 510.21-14L510.21-14Q510.21-9.45 508.36-6.15 506.51-2.85 503.48-1.15 500.46 0.55 497.01 0.55L497.01 0.55Q490.71 0.55 487.53-3.45 484.36-7.45 484.36-13.95L484.36-13.95ZM497.31-2.3Q500.76-2.3 502.61-5.15 504.46-8 504.46-13.6L504.46-13.6Q504.46-19.15 502.76-22.4 501.06-25.65 497.31-25.65L497.31-25.65Q493.86-25.65 491.98-22.8 490.11-19.95 490.11-14.35L490.11-14.35Q490.11-8.8 491.86-5.55 493.61-2.3 497.31-2.3L497.31-2.3ZM514.7 0L514.7-2.45 517.75-2.9 517.75-23.9 514.15-24.8 514.15-27.5 521.3-28.4 522.2-27.75 522.5-25.75 522.45-24.15Q524.2-25.75 527.23-27.08 530.25-28.4 532.65-28.4L532.65-28.4Q535.35-28.4 537-27.5 538.65-26.6 539.5-24.7L539.5-24.7Q541.1-26.05 543.98-27.23 546.85-28.4 549.35-28.4L549.35-28.4Q552.45-28.4 554.2-27.23 555.95-26.05 556.68-23.58 557.4-21.1 557.4-16.95L557.4-16.95 557.4-2.9 561-2.45 561 0 549.1 0 549.1-2.45 552.2-2.9 552.2-16.8Q552.2-19.7 551.78-21.43 551.35-23.15 550.18-24 549-24.85 546.8-24.85L546.8-24.85Q545.15-24.85 543.3-24.13 541.45-23.4 540.15-22.4L540.15-22.4Q540.6-20.45 540.6-16.85L540.6-16.85 540.6-2.9 544.15-2.45 544.15 0 532.05 0 532.05-2.45 535.35-2.9 535.35-16.9Q535.35-19.9 534.98-21.55 534.6-23.2 533.55-24.03 532.5-24.85 530.35-24.85L530.35-24.85Q528.55-24.85 526.53-23.95 524.5-23.05 523-21.85L523-21.85 523-2.9 526.35-2.45 526.35 0 514.7 0Z" opacity="1" transform="matrix(1,0,0,1,0,0)" fill="#000000" class="undefined-text-1" data-fill-palette-color="secondary" id="text-1"></path></svg></g></svg></g></svg></g></svg></g><g transform="matrix(1,0,0,1,442.15508603498904,0)"><svg viewBox="0 0 222.2991479179401 222.2991479179401" height="222.2991479179401" width="222.2991479179401"><g><svg></svg></g><g id="icon-0"><svg viewBox="0 0 222.2991479179401 222.2991479179401" height="222.2991479179401" width="222.2991479179401"><g><path d="M0 111.15c0-61.386 49.763-111.15 111.15-111.15 61.386 0 111.15 49.763 111.149 111.15 0 61.386-49.763 111.15-111.149 111.149-61.386 0-111.15-49.763-111.15-111.149zM111.15 213.392c56.467 0 102.242-45.775 102.242-102.242 0-56.467-45.775-102.242-102.242-102.243-56.467 0-102.242 45.775-102.243 102.243 0 56.467 45.775 102.242 102.243 102.242z" data-fill-palette-color="accent" fill="#000000" stroke="transparent"></path></g><g transform="matrix(1,0,0,1,51.445981150558325,49.05411325170756)"><svg viewBox="0 0 119.40718561682345 124.19092141452498" height="124.19092141452498" width="119.40718561682345"><g><svg xmlns="http://www.w3.org/2000/svg" viewBox="94 -4.0312042236328125 500 520.0311889648438" style="enable-background:new 44 -44 600 600" xml:space="preserve" x="0" y="0" height="124.19092141452498" width="119.40718561682345" class="icon-x-0" data-fill-palette-color="accent" id="x-0"><path d="M194 516c-2.1 0-4.2-0.3-6.3-1-10.5-3.5-16.1-14.8-12.6-25.3l160-480C338.5-0.8 349.8-6.5 360.3-3s16.1 14.8 12.6 25.3l-160 480c-2.7 8.4-10.5 13.7-18.9 13.7zM354 516c-2.1 0-4.2-0.3-6.3-1-10.5-3.5-16.1-14.8-12.6-25.3l160-480C498.5-0.8 509.9-6.5 520.3-3c10.5 3.5 16.1 14.8 12.6 25.3l-160 480c-2.7 8.4-10.5 13.7-18.9 13.7z" fill="#000000" data-fill-palette-color="accent"></path><path d="M534 356H114c-11 0-20-9-20-20s9-20 20-20h420c11 0 20 9 20 20s-9 20-20 20zM574 196H174c-11 0-20-9-20-20s9-20 20-20h400c11 0 20 9 20 20s-9 20-20 20z" fill="#000000" data-fill-palette-color="accent"></path></svg></g></svg></g></svg></g></svg></g></svg></g></svg><rect width="395.52" height="132.32477797821107" fill="none" stroke="none" visibility="hidden"></rect></g></svg></g></svg>